HIERARCHY
ROOT Hips
{
  OFFSET -77.1882 53.3887 -18.0511
  CHANNELS 6 Xposition Yposition Zposition Zrotation Xrotation Yrotation
  JOINT RightUpLeg
  {
    OFFSET -18.37 -1.44 -0.06
    CHANNELS 6 Xposition Yposition Zposition Zrotation Xrotation Yrotation
    JOINT RightLeg
    {
      OFFSET 0.13 -49.98 0.1
      CHANNELS 6 Xposition Yposition Zposition Zrotation Xrotation Yrotation
      JOINT RightFoot
      {
        OFFSET -0.21 -44.18 1.04
        CHANNELS 6 Xposition Yposition Zposition Zrotation Xrotation Yrotation
        End Site
        {
          OFFSET 0 -9 17.5
        }
      }
    }
  }
  JOINT LeftUpLeg
  {
    OFFSET 18.41 -1.42 0.1
    CHANNELS 6 Xposition Yposition Zposition Zrotation Xrotation Yrotation
    JOINT LeftLeg
    {
      OFFSET -0.11 -49.86 -0.02
      CHANNELS 6 Xposition Yposition Zposition Zrotation Xrotation Yrotation
      JOINT LeftFoot
      {
        OFFSET 0.27 -39.78 -1
        CHANNELS 6 Xposition Yposition Zposition Zrotation Xrotation Yrotation
        End Site
        {
          OFFSET 0 -9 17.5
        }
      }
    }
  }
  JOINT Spine
  {
    OFFSET -0.04 13.07 -0.27
    CHANNELS 6 Xposition Yposition Zposition Zrotation Xrotation Yrotation
    JOINT Spine1
    {
      OFFSET -0.04 8.89 -0.09
      CHANNELS 6 Xposition Yposition Zposition Zrotation Xrotation Yrotation
      JOINT Spine2
      {
        OFFSET -0.06 9.24 -0.07
        CHANNELS 6 Xposition Yposition Zposition Zrotation Xrotation Yrotation
        JOINT Spine3
        {
          OFFSET -0.06 8.88 -0.04
          CHANNELS 6 Xposition Yposition Zposition Zrotation Xrotation Yrotation
          JOINT Neck
          {
            OFFSET -0.07 9.49 -0.06
            CHANNELS 6 Xposition Yposition Zposition Zrotation Xrotation Yrotation
            JOINT Head
            {
              OFFSET -0.04 10.01 0.07
              CHANNELS 6 Xposition Yposition Zposition Zrotation Xrotation Yrotation
              End Site
              {
                OFFSET 0 24 0
              }
            }
          }
          JOINT RightShoulder
          {
            OFFSET -5.11 6.17 0.01
            CHANNELS 6 Xposition Yposition Zposition Zrotation Xrotation Yrotation
            JOINT RightArm
            {
              OFFSET -19.75 0 0.41
              CHANNELS 6 Xposition Yposition Zposition Zrotation Xrotation Yrotation
              JOINT RightForeArm
              {
                OFFSET -30.65 -0.1 -0.1
                CHANNELS 6 Xposition Yposition Zposition Zrotation Xrotation Yrotation
                JOINT RightHand
                {
                  OFFSET -28.77 -1.84 -2.16
                  CHANNELS 6 Xposition Yposition Zposition Zrotation Xrotation Yrotation
                  JOINT RightHandThumb1
                  {
                    OFFSET -2.56 0.2 3.21
                    CHANNELS 6 Xposition Yposition Zposition Zrotation Xrotation Yrotation
                    JOINT RightHandThumb2
                    {
                      OFFSET -3.79 0 0
                      CHANNELS 6 Xposition Yposition Zposition Zrotation Xrotation Yrotation
                      JOINT RightHandThumb3
                      {
                        OFFSET -2.63 0 0
                        CHANNELS 6 Xposition Yposition Zposition Zrotation Xrotation Yrotation
                        End Site
                        {
                          OFFSET -2.256 0 0
                        }
                      }
                    }
                  }
                  JOINT RightInHandIndex
                  {
                    OFFSET -3.32 0.52 2.03
                    CHANNELS 6 Xposition Yposition Zposition Zrotation Xrotation Yrotation
                    JOINT RightHandIndex1
                    {
                      OFFSET -5.37 -0.09 1.03
                      CHANNELS 6 Xposition Yposition Zposition Zrotation Xrotation Yrotation
                      JOINT RightHandIndex2
                      {
                        OFFSET -3.72 0 0
                        CHANNELS 6 Xposition Yposition Zposition Zrotation Xrotation Yrotation
                        JOINT RightHandIndex3
                        {
                          OFFSET -2.11 0 0
                          CHANNELS 6 Xposition Yposition Zposition Zrotation Xrotation Yrotation
                          End Site
                          {
                            OFFSET -1.857 0 0
                          }
                        }
                      }
                    }
                  }
                  JOINT RightInHandMiddle
                  {
                    OFFSET -3.48 0.53 0.78
                    CHANNELS 6 Xposition Yposition Zposition Zrotation Xrotation Yrotation
                    JOINT RightHandMiddle1
                    {
                      OFFSET -5.32 -0.09 0.32
                      CHANNELS 6 Xposition Yposition Zposition Zrotation Xrotation Yrotation
                      JOINT RightHandMiddle2
                      {
                        OFFSET -4.06 0 0
                        CHANNELS 6 Xposition Yposition Zposition Zrotation Xrotation Yrotation
                        JOINT RightHandMiddle3
                        {
                          OFFSET -2.55 0 0
                          CHANNELS 6 Xposition Yposition Zposition Zrotation Xrotation Yrotation
                          End Site
                          {
                            OFFSET -2.031 0 0
                          }
                        }
                      }
                    }
                  }
                  JOINT RightInHandRing
                  {
                    OFFSET -3.46 0.55 -0.13
                    CHANNELS 6 Xposition Yposition Zposition Zrotation Xrotation Yrotation
                    JOINT RightHandRing1
                    {
                      OFFSET -4.77 -0.02 -0.49
                      CHANNELS 6 Xposition Yposition Zposition Zrotation Xrotation Yrotation
                      JOINT RightHandRing2
                      {
                        OFFSET -3.54 0 0
                        CHANNELS 6 Xposition Yposition Zposition Zrotation Xrotation Yrotation
                        JOINT RightHandRing3
                        {
                          OFFSET -2.46 0 0
                          CHANNELS 6 Xposition Yposition Zposition Zrotation Xrotation Yrotation
                          End Site
                          {
                            OFFSET -1.91 0 0
                          }
                        }
                      }
                    }
                  }
                  JOINT RightInHandPinky
                  {
                    OFFSET -3.25 0.48 -1.24
                    CHANNELS 6 Xposition Yposition Zposition Zrotation Xrotation Yrotation
                    JOINT RightHandPinky1
                    {
                      OFFSET -4.26 -0.02 -1.12
                      CHANNELS 6 Xposition Yposition Zposition Zrotation Xrotation Yrotation
                      JOINT RightHandPinky2
                      {
                        OFFSET -2.84 0 0
                        CHANNELS 6 Xposition Yposition Zposition Zrotation Xrotation Yrotation
                        JOINT RightHandPinky3
                        {
                          OFFSET -1.79 0 0
                          CHANNELS 6 Xposition Yposition Zposition Zrotation Xrotation Yrotation
                          End Site
                          {
                            OFFSET -1.692 0 0
                          }
                        }
                      }
                    }
                  }
                }
              }
            }
          }
          JOINT LeftShoulder
          {
            OFFSET 5.05 6.39 0.19
            CHANNELS 6 Xposition Yposition Zposition Zrotation Xrotation Yrotation
            JOINT LeftArm
            {
              OFFSET 20.21 0.22 0.44
              CHANNELS 6 Xposition Yposition Zposition Zrotation Xrotation Yrotation
              JOINT LeftForeArm
              {
                OFFSET 30.33 0.46 0.13
                CHANNELS 6 Xposition Yposition Zposition Zrotation Xrotation Yrotation
                JOINT LeftHand
                {
                  OFFSET 28 0.07 -0.65
                  CHANNELS 6 Xposition Yposition Zposition Zrotation Xrotation Yrotation
                  JOINT LeftHandThumb1
                  {
                    OFFSET 2.56 0.2 3.21
                    CHANNELS 6 Xposition Yposition Zposition Zrotation Xrotation Yrotation
                    JOINT LeftHandThumb2
                    {
                      OFFSET 3.79 0 0
                      CHANNELS 6 Xposition Yposition Zposition Zrotation Xrotation Yrotation
                      JOINT LeftHandThumb3
                      {
                        OFFSET 2.63 0 0
                        CHANNELS 6 Xposition Yposition Zposition Zrotation Xrotation Yrotation
                        End Site
                        {
                          OFFSET 2.256 0 0
                        }
                      }
                    }
                  }
                  JOINT LeftInHandIndex
                  {
                    OFFSET 3.32 0.52 2.03
                    CHANNELS 6 Xposition Yposition Zposition Zrotation Xrotation Yrotation
                    JOINT LeftHandIndex1
                    {
                      OFFSET 5.37 -0.09 1.03
                      CHANNELS 6 Xposition Yposition Zposition Zrotation Xrotation Yrotation
                      JOINT LeftHandIndex2
                      {
                        OFFSET 3.72 0 0
                        CHANNELS 6 Xposition Yposition Zposition Zrotation Xrotation Yrotation
                        JOINT LeftHandIndex3
                        {
                          OFFSET 2.11 0 0
                          CHANNELS 6 Xposition Yposition Zposition Zrotation Xrotation Yrotation
                          End Site
                          {
                            OFFSET 1.857 0 0
                          }
                        }
                      }
                    }
                  }
                  JOINT LeftInHandMiddle
                  {
                    OFFSET 3.48 0.53 0.78
                    CHANNELS 6 Xposition Yposition Zposition Zrotation Xrotation Yrotation
                    JOINT LeftHandMiddle1
                    {
                      OFFSET 5.32 -0.09 0.32
                      CHANNELS 6 Xposition Yposition Zposition Zrotation Xrotation Yrotation
                      JOINT LeftHandMiddle2
                      {
                        OFFSET 4.06 0 0
                        CHANNELS 6 Xposition Yposition Zposition Zrotation Xrotation Yrotation
                        JOINT LeftHandMiddle3
                        {
                          OFFSET 2.55 0 0
                          CHANNELS 6 Xposition Yposition Zposition Zrotation Xrotation Yrotation
                          End Site
                          {
                            OFFSET 2.031 0 0
                          }
                        }
                      }
                    }
                  }
                  JOINT LeftInHandRing
                  {
                    OFFSET 3.46 0.55 -0.13
                    CHANNELS 6 Xposition Yposition Zposition Zrotation Xrotation Yrotation
                    JOINT LeftHandRing1
                    {
                      OFFSET 4.77 -0.02 -0.49
                      CHANNELS 6 Xposition Yposition Zposition Zrotation Xrotation Yrotation
                      JOINT LeftHandRing2
                      {
                        OFFSET 3.54 0 0
                        CHANNELS 6 Xposition Yposition Zposition Zrotation Xrotation Yrotation
                        JOINT LeftHandRing3
                        {
                          OFFSET 2.46 0 0
                          CHANNELS 6 Xposition Yposition Zposition Zrotation Xrotation Yrotation
                          End Site
                          {
                            OFFSET 1.91 0 0
                          }
                        }
                      }
                    }
                  }
                  JOINT LeftInHandPinky
                  {
                    OFFSET 3.25 0.48 -1.24
                    CHANNELS 6 Xposition Yposition Zposition Zrotation Xrotation Yrotation
                    JOINT LeftHandPinky1
                    {
                      OFFSET 4.26 -0.02 -1.12
                      CHANNELS 6 Xposition Yposition Zposition Zrotation Xrotation Yrotation
                      JOINT LeftHandPinky2
                      {
                        OFFSET 2.84 0 0
                        CHANNELS 6 Xposition Yposition Zposition Zrotation Xrotation Yrotation
                        JOINT LeftHandPinky3
                        {
                          OFFSET 1.79 0 0
                          CHANNELS 6 Xposition Yposition Zposition Zrotation Xrotation Yrotation
                          End Site
                          {
                            OFFSET 1.692 0 0
                          }
                        }
                      }
                    }
                  }
                }
              }
            }
          }
        }
      }
    }
  }
}
MOTION
Frames:	4
Frame Time:	0.0166667
-75.3849 55.5842 -19.4123 -22.9806 -0.534511 85.7552 -18.4984 -1.38 -0.01 -118.996 -60.9663 -108.612 -0.00476563 -50.0466 0.0807031 100.449 68.2318 -84.677 -0.208828 -44.53 1.82 -3.64 -21.4818 6.16203 18.552 -1.49203 0 158.296 -73.6718 155.085 0.1 -49.998 -0.02 17.0228 87.8373 -13.266 -1.09523 -38.8391 -0.731797 1.25844 -17.7325 -3.9118 0.0302344 13.07 0.00226563 0.505525 9.35747 -4.2652 0.02 8.87 0.0109375 0.169766 1.2575 -1.0593 0.0120312 9.24 -0.0397656 0.299766 2.09477 -1.7693 0.0307031 8.88 -0.0297656 0.270242 -1.44819 -0.11984 0.0120312 9.49 -0.0277344 0.269995 -1.47007 -0.13 0.0197656 10.008 -0.0572656 4.58727 -27.2293 -2.53687 -5.08797 6.28 0.0015625 -5.20438 -10.247 21.8212 -20.3265 -0.02 0.0327344 58.1309 -5.85916 45.4719 -29.9802 -0.0732813 0.103984 -11.9489 -38.3394 76.9009 -27.97 0.00765625 0.0197656 -14.1478 1.50844 0.0262507 -2.56 0.2 3.21 28.18 10.73 19.16 -3.79 0 0 1.76953e-014 -9.54166e-015 -10 -2.63 0 7.10543e-015 -2.95161e-014 -2.54444e-014 -10 -3.32 0.52 2.03 -6.36111e-015 -3.18055e-015 -1.59028e-015 -5.37 -0.09 1.03 19.98 0.87 2.4 -3.72 0 1.42109e-014 24 9.54166e-015 2.06736e-014 -2.11 0 -7.10543e-015 20 6.36111e-015 1.59028e-014 -3.48 0.53 0.78 -6.36111e-015 -3.18055e-015 -1.59028e-015 -5.32 -0.09 0.32 20 -9.54166e-015 -2.78299e-015 -4.06 -7.10543e-015 1.42109e-014 24 2.54444e-014 1.59028e-014 -2.55 -1.42109e-014 -7.10543e-015 20 -3.49861e-014 3.18055e-014 -3.46 0.55 -0.13 -6.36111e-015 -3.18055e-015 -1.59028e-015 -4.77 -0.02 -0.49 19.97 -1.03 -2.82 -3.54 0 7.10543e-015 24 0 2.22639e-014 -2.46 0 0 20 -3.18055e-015 9.54166e-015 -3.25 0.48 -1.24 -6.36111e-015 -3.18055e-015 -1.59028e-015 -4.26 -0.02 -1.12 19.78 -3.01 -8.31 -2.84 7.10543e-015 1.42109e-014 24 4.77083e-014 1.35174e-014 -1.79 0 0 20 -9.54166e-015 3.65764e-014 5.14023 6.29023 -0.0802344 3.20437 -9.27016 -19.4633 20.438 -0.0102344 -0.0904687 -40.5392 1.66837 -49.6663 30.05 -0.00179688 0.00929688 19.7853 -43.2847 -76.6296 27.9077 -0.0392969 -0.122031 15.9443 12.9298 -0.234765 2.56 0.2 3.21 -28.18 10.73 -19.16 3.79 0 1.77636e-015 8.70251e-015 -1.27222e-014 10 2.63 0 3.55271e-015 -0 0 10 3.32 0.52 2.03 7.20594e-016 -6.36111e-015 -7.33018e-016 5.37 -0.09 1.03 -19.98 0.87 -2.4 3.72 1.42109e-014 7.10543e-015 -24 -3.18055e-015 6.36111e-015 2.11 0 7.10543e-015 -20 6.36111e-015 3.18055e-015 3.48 0.53 0.78 7.20594e-016 -6.36111e-015 -7.33018e-016 5.32 -0.09 0.32 -20 3.18055e-015 -1.59028e-015 4.06 0 0 -24 3.18055e-015 3.18055e-015 2.55 0 0 -20 4.77083e-015 3.18055e-015 3.46 0.55 -0.13 7.20594e-016 -6.36111e-015 -7.33018e-016 4.77 -0.02 -0.49 -19.97 -1.03 2.82 3.54 0 0 -24 -1.90833e-014 -3.18055e-015 2.46 -1.42109e-014 7.10543e-015 -20 1.11319e-014 2.22639e-014 3.25 0.48 -1.24 7.20594e-016 -6.36111e-015 -7.33018e-016 4.26 -0.02 -1.12 -19.78 -3.01 8.31 2.84 -1.42109e-014 0 -24 3.18055e-015 3.18055e-015 1.79 0 -7.10543e-015 -20 2.22639e-014 -0 
-75.3685 55.5554 -19.4415 -23.0116 -0.569524 85.763 -18.5037 -1.38296 -0.012963 -118.962 -60.9151 -108.614 -0.0133333 -50.0393 0.0807407 100.514 68.1774 -84.6909 -0.235556 -44.5296 1.82259 -3.76037 -21.5433 6.08889 18.56 -1.49667 1.42109e-014 158.489 -73.6169 155.36 0.1 -49.99 -0.022963 19.2372 87.88 -15.4983 -1.04 -38.8533 -0.75037 1.30889 -17.7926 -3.8537 0.0192593 13.07 -0.00111111 0.521037 9.31316 -4.26078 0.02 8.87 -0.00037037 0.180733 1.23889 -1.05963 0.02 9.24 -0.0537037 0.31037 2.07222 -1.76999 0.03 8.87704 -0.0403704 0.259355 -1.45069 -0.11616 0.022963 9.49 -0.0337037 0.267021 -1.47014 -0.130371 0.0307407 10.003 -0.05 4.49667 -27.2289 -2.46704 -5.08 6.28 -0.00037037 -5.40371 -10.1667 21.8244 -20.327 -0.0203704 0.04 58.3055 -6.09955 45.506 -29.9663 -0.0392593 0.0755556 -12.0748 -38.3622 76.8033 -27.967 0.0648148 0.0337037 -13.3536 2.06296 0.175182 -2.56 0.2 3.21 28.18 10.73 19.16 -3.79 0 -7.10543e-015 1.34117e-014 -6.36111e-015 -10 -2.63 0 0 -1.97596e-014 -1.59028e-014 -10 -3.32 0.52 2.03 -1.27222e-014 0 -6.36111e-015 -5.37 -0.09 1.03 19.98 0.87 2.4 -3.72 -7.10543e-015 7.10543e-015 24 -1.27222e-014 -0 -2.11 0 0 20 -3.18055e-015 -0 -3.48 0.53 0.78 -1.27222e-014 0 -6.36111e-015 -5.32 -0.09 0.32 20 3.18055e-015 1.47101e-014 -4.06 0 1.42109e-014 24 3.18055e-015 1.59028e-014 -2.55 0 7.10543e-015 20 -3.81667e-014 1.90833e-014 -3.46 0.55 -0.13 -1.27222e-014 0 -6.36111e-015 -4.77 -0.02 -0.49 19.97 -1.03 -2.82 -3.54 0 0 24 1.27222e-014 -1.59028e-015 -2.46 0 0 20 9.54166e-015 -0 -3.25 0.48 -1.24 -1.27222e-014 0 -6.36111e-015 -4.26 -0.02 -1.12 19.78 -3.01 -8.31 -2.84 7.10543e-015 0 24 3.81667e-014 -7.15625e-015 -1.79 0 -1.42109e-014 20 -1.27222e-014 1.27222e-014 5.1263 6.31741 -0.0659259 3.27741 -9.22 -19.5574 20.427 0.0037037 -0.0625926 -40.5055 1.38963 -49.7556 30.05 -0.0203704 0.0133333 19.2387 -43.5357 -76.8617 27.9107 -0.037037 -0.12963 14.997 13.1 0.118521 2.56 0.2 3.21 -28.18 10.73 -19.16 3.79 0 1.77636e-015 1.12164e-015 -6.36111e-015 10 2.63 0 -7.10543e-015 -1.68245e-015 9.54166e-015 10 3.32 0.52 2.03 -1.44119e-015 -3.18055e-015 -8.00108e-015 5.37 -0.09 1.03 -19.98 0.87 -2.4 3.72 0 7.10543e-015 -24 -6.36111e-015 -1.59028e-014 2.11 1.42109e-014 0 -20 -4.77083e-015 -6.36111e-015 3.48 0.53 0.78 -1.44119e-015 -3.18055e-015 -8.00108e-015 5.32 -0.09 0.32 -20 6.36111e-015 -6.36111e-015 4.06 0 0 -24 3.18055e-015 -6.36111e-015 2.55 0 0 -20 -4.77083e-015 -9.54166e-015 3.46 0.55 -0.13 -1.44119e-015 -3.18055e-015 -8.00108e-015 4.77 -0.02 -0.49 -19.97 -1.03 2.82 3.54 0 -7.10543e-015 -24 -1.90833e-014 -2.8625e-014 2.46 0 0 -20 -1.27222e-014 3.18055e-015 3.25 0.48 -1.24 -1.44119e-015 -3.18055e-015 -8.00108e-015 4.26 -0.02 -1.12 -19.78 -3.01 8.31 2.84 0 -2.13163e-014 -24 1.27222e-014 -6.36111e-015 1.79 0 -7.10543e-015 -20 2.54444e-014 -3.18055e-015 
-75.3551 55.5311 -19.4709 -23.0039 -0.609122 85.7815 -18.511 -1.38502 -0.0205064 -118.878 -60.8593 -108.549 -0.0541522 -50.0619 0.0585822 100.719 67.9835 -84.7218 -0.311473 -44.5442 1.84071 -3.99198 -21.6197 5.94844 18.56 -1.50467 1.42109e-014 158.648 -73.5934 155.618 0.0960359 -49.986 -0.0339641 22.4653 87.8888 -18.7061 -0.981464 -38.8712 -0.764167 1.26822 -17.8907 -3.8871 0.02 13.07 0.0107089 0.549669 9.31319 -4.27071 0.02 8.86949 -0.0102025 0.18407 1.25071 -1.06484 0.02 9.24 -0.0634578 0.320203 2.08 -1.76949 0.03 8.87 -0.0541667 0.260592 -1.45416 -0.11232 0.0339641 9.49 -0.0434578 0.26 -1.47 -0.119291 0.0339641 10.01 -0.05 4.40937 -27.3062 -2.36866 -5.08 6.28 -0.0107089 -5.59851 -10.1453 21.8093 -20.32 -0.00929109 0.0439641 58.5724 -6.36725 45.5276 -29.957 -0.0261516 0.0704196 -12.4308 -38.3638 76.6487 -27.96 0.0960764 0.0420255 -12.2086 2.28371 0.299983 -2.56 0.2 3.21 28.18 10.73 19.16 -3.79 -1.42109e-014 0 2.5837e-014 0 -10 -2.63 0 7.10543e-015 -2.67578e-014 -3.49861e-014 -10 -3.32 0.52 2.03 0 0 -0 -5.37 -0.09 1.03 19.98 0.87 2.4 -3.72 0 0 24 1.59028e-014 6.36111e-015 -2.11 -1.42109e-014 -2.84217e-014 20 -6.36111e-015 1.59028e-014 -3.48 0.53 0.78 0 0 -0 -5.32 -0.09 0.32 20 -3.18055e-015 5.1684e-015 -4.06 0 -1.42109e-014 24 -6.36111e-015 1.59028e-014 -2.55 0 7.10543e-015 20 -3.18055e-014 3.81667e-014 -3.46 0.55 -0.13 0 0 -0 -4.77 -0.02 -0.49 19.97 -1.03 -2.82 -3.54 -7.10543e-015 0 24 -3.18055e-015 1.43125e-014 -2.46 0 2.13163e-014 20 -3.18055e-015 1.59028e-014 -3.25 0.48 -1.24 0 0 -0 -4.26 -0.02 -1.12 19.78 -3.01 -8.31 -2.84 0 0 24 3.49861e-014 4.77083e-015 -1.79 0 0 20 -6.36111e-015 2.70347e-014 5.11949 6.33203 -0.0696962 3.39644 -9.22885 -19.681 20.42 0.00806134 -0.0484809 -40.5776 1.08287 -49.8192 30.05 -0.0302025 0.0132552 19.0887 -43.8834 -76.7871 27.91 -0.03 -0.140709 14.2825 13.1832 0.420056 2.56 0.2 3.21 -28.18 10.73 -19.16 3.79 1.42109e-014 0 1.12164e-015 -6.36111e-015 10 2.63 1.42109e-014 0 -1.08105e-014 6.36111e-015 10 3.32 0.52 2.03 -6.60959e-015 6.36111e-015 1.3418e-015 5.37 -0.09 1.03 -19.98 0.87 -2.4 3.72 0 7.10543e-015 -24 -3.18055e-015 -3.18055e-015 2.11 0 0 -20 -1.59028e-015 6.36111e-015 3.48 0.53 0.78 -6.60959e-015 6.36111e-015 1.3418e-015 5.32 -0.09 0.32 -20 0 1.59028e-015 4.06 1.42109e-014 -7.10543e-015 -24 -3.18055e-015 9.54166e-015 2.55 0 0 -20 6.36111e-015 6.36111e-015 3.46 0.55 -0.13 -6.60959e-015 6.36111e-015 1.3418e-015 4.77 -0.02 -0.49 -19.97 -1.03 2.82 3.54 0 0 -24 -1.90833e-014 -6.36111e-015 2.46 1.42109e-014 -1.42109e-014 -20 -3.18055e-015 1.27222e-014 3.25 0.48 -1.24 -6.60959e-015 6.36111e-015 1.3418e-015 4.26 -0.02 -1.12 -19.78 -3.01 8.31 2.84 0 -7.10543e-015 -24 1.27222e-014 3.18055e-015 1.79 -1.42109e-014 1.42109e-014 -20 2.38542e-014 -3.18055e-015 
-75.3453 55.4837 -19.5057 -23.0196 -0.645932 85.8125 -18.4888 -1.40125 -0.009375 -118.86 -60.6583 -108.465 -0.0025 -50.0494 0.06 100.991 67.9006 -84.8119 -0.318125 -44.57 1.83938 -3.95813 -21.6556 5.97 18.5594 -1.515 0.005 158.871 -73.5587 155.935 0.089375 -49.985 -0.039375 25.4997 87.9144 -21.7304 -0.93 -38.86 -0.78 1.28751 -17.9506 -3.87937 0.019375 13.07 0.01 0.571656 9.30891 -4.28567 0.019375 8.88062 -0.02 0.185538 1.245 -1.07013 0.02 9.24 -0.085625 0.330488 2.08062 -1.78063 0.03 8.87 -0.075625 0.24937 -1.45759 -0.11 0.045 9.49 -0.065625 0.255 -1.46937 -0.120625 0.045 10.01 -0.055 4.315 -27.4044 -2.27937 -5.08 6.28 -0.009375 -5.75687 -10.1444 21.7606 -20.32 -0.01 0.05 58.9261 -6.67004 45.5662 -30.0238 -0.12625 0.154375 -13.7402 -38.9843 76.1541 -27.965 -0.0325 0.003125 -10.422 1.88125 0.0968783 -2.56 0.2 3.21 28.18 10.73 19.16 -3.79 0 7.10543e-015 1.13713e-014 9.54166e-015 -10 -2.63 0 -7.10543e-015 -2.80584e-014 -2.8625e-014 -10 -3.32 0.52 2.03 6.36111e-015 -3.18055e-015 -1.43125e-014 -5.37 -0.09 1.03 19.98 0.87 2.4 -3.72 0 7.10543e-015 24 3.18055e-015 4.77083e-015 -2.11 0 -7.10543e-015 20 -3.18055e-015 3.18055e-015 -3.48 0.53 0.78 6.36111e-015 -3.18055e-015 -1.43125e-014 -5.32 -0.09 0.32 20 3.18055e-015 -2.38542e-015 -4.06 0 -7.10543e-015 24 9.54166e-015 -0 -2.55 0 -1.42109e-014 20 -3.18055e-014 3.18055e-014 -3.46 0.55 -0.13 6.36111e-015 -3.18055e-015 -1.43125e-014 -4.77 -0.02 -0.49 19.97 -1.03 -2.82 -3.54 7.10543e-015 7.10543e-015 24 0 1.59028e-015 -2.46 0 -7.10543e-015 20 -9.54166e-015 9.54166e-015 -3.25 0.48 -1.24 6.36111e-015 -3.18055e-015 -1.43125e-014 -4.26 -0.02 -1.12 19.78 -3.01 -8.31 -2.84 -7.10543e-015 0 24 3.81667e-014 -7.95139e-015 -1.79 0 0 20 -9.54166e-015 2.54444e-014 5.13063 6.2875 -0.09625 3.72686 -9.30499 -19.8963 20.42 -0.0425 -0.081875 -40.8681 0.695595 -49.8625 30.05 -0.040625 0.020625 19.0794 -44.3509 -76.529 27.91 -0.03 -0.14 13.5981 13.2437 0.673125 2.56 0.2 3.21 -28.18 10.73 -19.16 3.79 0 3.55271e-015 1.12164e-015 -6.36111e-015 10 2.63 0 -3.55271e-015 -1.78306e-014 9.54166e-015 10 3.32 0.52 2.03 4.96962e-017 -6.36111e-015 -8.72168e-015 5.37 -0.09 1.03 -19.98 0.87 -2.4 3.72 0 7.10543e-015 -24 -6.36111e-015 -3.18055e-015 2.11 0 0 -20 1.59028e-015 -2.22639e-014 3.48 0.53 0.78 4.96962e-017 -6.36111e-015 -8.72168e-015 5.32 -0.09 0.32 -20 6.36111e-015 -6.36111e-015 4.06 0 0 -24 3.18055e-015 -6.36111e-015 2.55 1.42109e-014 -1.42109e-014 -20 1.59028e-015 -1.59028e-014 3.46 0.55 -0.13 4.96962e-017 -6.36111e-015 -8.72168e-015 4.77 -0.02 -0.49 -19.97 -1.03 2.82 3.54 0 0 -24 -3.18055e-014 -1.27222e-014 2.46 1.42109e-014 0 -20 7.95139e-015 -0 3.25 0.48 -1.24 4.96962e-017 -6.36111e-015 -8.72168e-015 4.26 -0.02 -1.12 -19.78 -3.01 8.31 2.84 0 7.10543e-015 -24 2.22639e-014 -6.36111e-015 1.79 0 -1.42109e-014 -20 3.33958e-014 -0 
